<svg xmlns="http://www.w3.org/2000/svg" width="19.772" height="27.004" viewBox="0 0 19.772 27.004">
  <g id="auto_responder" data-name="auto responder" transform="translate(-6 -1.996)">
    <path id="Path_149" data-name="Path 149" d="M23.16,7.35A9,9,0,0,0,17,4.71V3a1,1,0,0,0-1.5-.87L8,6.48A1,1,0,0,0,8,8.21l7.51,4.33a1,1,0,0,0,1.5-.86V10.3A7,7,0,0,1,23.08,17a1,1,0,0,0,.81.95h.19a1,1,0,0,0,.91-.59A9,9,0,0,0,23.16,7.35Z" fill="#2a42e6"/>
    <path id="Path_150" data-name="Path 150" d="M19,14H9a3,3,0,0,0-3,3V28a1,1,0,0,0,.62.92A.84.84,0,0,0,7,29a1,1,0,0,0,.71-.29L10.41,26H19a3,3,0,0,0,3-3V17A3,3,0,0,0,19,14Z" fill="#25aae1"/>
    <path id="Path_151" data-name="Path 151" d="M17,21H11a1,1,0,0,1,0-2h6a1,1,0,0,1,0,2Z" fill="#2a42e6"/>
  </g>
</svg>
