<svg xmlns="http://www.w3.org/2000/svg" width="150.05" height="150.044" viewBox="0 0 150.05 150.044">
  <g id="duck" opacity="0.074">
    <g id="Group_30" data-name="Group 30" transform="translate(0 0)">
      <path id="Path_41" data-name="Path 41" d="M145.811,46.858l.069-.069a12.465,12.465,0,0,0-8.334-21.77h-8.74a40.5,40.5,0,0,1-2.92-3.964C120.853,13.7,111.487.011,93.781.011,69.3.011,56.269,19.98,56.269,34.4c0,9.916,6.677,20.957,10.547,26.515a54.781,54.781,0,0,1-13.673,1.619c-11.71,0-20.251-1.213-31.842-17.449a3.128,3.128,0,0,0-4.383-.713C6.758,51.753,0,60.856,0,81.282c0,20.682,7.921,68.773,81.277,68.773,62.483,0,65.647-41.664,65.647-50.017,0-15.311-14.148-33.086-20.15-39.945C132.05,56.842,142.2,50.4,145.811,46.858ZM100.033,25.019a6.252,6.252,0,1,1-6.252,6.252A6.262,6.262,0,0,1,100.033,25.019ZM84.4,118.8C65,118.8,49.735,108.353,39.038,87.74c-.231-.438-.413-.8-.557-1.069a3.149,3.149,0,0,1-.744-1.094,3,3,0,0,1,.25-2.913,2.877,2.877,0,0,1,1.763-1.251,3.142,3.142,0,0,1,2.194.137,71.6,71.6,0,0,0,20.582,2.864,98.356,98.356,0,0,0,18.075-1.9,60.518,60.518,0,0,1,10.06-1.225,15.652,15.652,0,0,1,15.63,15.63A21.915,21.915,0,0,1,84.4,118.8Z" transform="translate(0 -0.011)" fill="#0d94ad"/>
    </g>
  </g>
</svg>
